<?xml version="1.0" standalone="no"?>
<!DOCTYPE svg PUBLIC "-//W3C//DTD SVG 20010904//EN"
 "http://www.w3.org/TR/2001/REC-SVG-20010904/DTD/svg10.dtd">
<svg version="1.0" xmlns="http://www.w3.org/2000/svg"
 width="256.000000pt" height="256.000000pt" viewBox="0 0 256.000000 256.000000"
 preserveAspectRatio="xMidYMid meet">

<g transform="translate(0.000000,256.000000) scale(0.100000,-0.100000)"
fill="#000000" stroke="none">
<path d="M1022 2427 c-13 -14 -22 -36 -22 -55 l0 -32 280 0 280 0 0 30 c0 19
-9 40 -25 55 l-24 25 -234 0 c-231 0 -234 0 -255 -23z"/>
<path d="M1208 1296 c-101 -27 -168 -117 -168 -225 0 -196 230 -302 379 -174
145 123 85 363 -100 402 -59 13 -51 13 -111 -3z m-11 -189 l22 28 -1 -50 c-1
-39 -2 -43 -5 -15 l-5 34 -18 -23 -18 -24 -13 24 -13 24 -7 -35 c-6 -32 -6
-30 -7 15 l-1 50 22 -28 21 -27 23 27z m50 -44 c-2 -16 -4 -5 -4 22 0 28 2 40
4 28 2 -13 2 -35 0 -50z m56 -17 c9 1 17 -3 17 -8 0 -5 -10 -8 -22 -6 -20 3
-23 9 -24 53 l-2 50 7 -45 c5 -35 10 -45 24 -44z m49 40 c1 -20 -2 -39 -5 -43
-4 -3 -7 15 -7 42 0 55 10 56 12 1z m44 25 c-17 -18 -17 -21 0 -48 l18 -28
-27 24 -27 25 22 23 c26 28 39 31 14 4z"/>
</g>
</svg>
